{
	"asset": {
		"generator": "Blocks 3.0.1 3.0.1_SVR_RC0",
		"version": "1.1",
		"copyright": "Unknown"
	},
	"buffers": {
		"model": {
			"byteLength": 207728,
			"type": "arraybuffer",
			"uri": "model.bin"
		}
	},
	"accessors": {
		"accessor_position_m0-PolyPaper21_-304704": {
			"bufferView": "vec3BufferView",
			"byteOffset": 0,
			"byteStride": 12,
			"componentType": 5126,
			"count": 2928,
			"max": [ 3.448068, 2.861276, -2.837224 ],
			"min": [ 1.735172, 1.632862, -3.512646 ],
			"type": "VEC3"
		 },
		"accessor_normal_m0-PolyPaper21_-304704": {
			"bufferView": "vec3BufferView",
			"byteOffset": 35136,
			"byteStride": 12,
			"componentType": 5126,
			"count": 2928,
			"max": [ 1, 0.9999592, 0.9997799 ],
			"min": [ -0.9998205, -1, -1 ],
			"type": "VEC3"
		 },
		"accessor_color_m0-PolyPaper21_-304704": {
			"bufferView": "vec4BufferView",
			"byteOffset": 0,
			"byteStride": 16,
			"componentType": 5126,
			"count": 2928,
			"max": [ 1, 1, 1, 1 ],
			"min": [ 0.01176471, 0.1019608, 0.1019608, 1 ],
			"type": "VEC4"
		 },
		"accessor_indices_0_m0-PolyPaper21_-304704": {
			"bufferView": "ushortBufferView",
			"byteOffset": 0,
			"byteStride": 0,
			"componentType": 5123,
			"count": 4224,
			"max": [ 2927 ],
			"min": [ 0 ],
			"type": "SCALAR"
		 },
		"accessor_position_m1-PolyGlass24_-304710": {
			"bufferView": "vec3BufferView",
			"byteOffset": 70272,
			"byteStride": 12,
			"componentType": 5126,
			"count": 336,
			"max": [ 2.701891, 2.740867, -3.367379 ],
			"min": [ 2.431155, 2.666643, -3.439103 ],
			"type": "VEC3"
		 },
		"accessor_normal_m1-PolyGlass24_-304710": {
			"bufferView": "vec3BufferView",
			"byteOffset": 74304,
			"byteStride": 12,
			"componentType": 5126,
			"count": 336,
			"max": [ 0.9934993, 0.8269578, 0.995225 ],
			"min": [ -0.9998896, -0.9725903, -0.9962717 ],
			"type": "VEC3"
		 },
		"accessor_color_m1-PolyGlass24_-304710": {
			"bufferView": "vec4BufferView",
			"byteOffset": 46848,
			"byteStride": 16,
			"componentType": 5126,
			"count": 336,
			"max": [ 1, 1, 1, 1 ],
			"min": [ 1, 1, 1, 1 ],
			"type": "VEC4"
		 },
		"accessor_indices_0_m1-PolyGlass24_-304710": {
			"bufferView": "ushortBufferView",
			"byteOffset": 8448,
			"byteStride": 0,
			"componentType": 5123,
			"count": 516,
			"max": [ 335 ],
			"min": [ 0 ],
			"type": "SCALAR"
		 },
		"accessor_position_m2-PolyPaper21_-304716": {
			"bufferView": "vec3BufferView",
			"byteOffset": 78336,
			"byteStride": 12,
			"componentType": 5126,
			"count": 1574,
			"max": [ 3.459671, 2.7145, -2.797604 ],
			"min": [ 1.739857, 2.264653, -3.509048 ],
			"type": "VEC3"
		 },
		"accessor_normal_m2-PolyPaper21_-304716": {
			"bufferView": "vec3BufferView",
			"byteOffset": 97224,
			"byteStride": 12,
			"componentType": 5126,
			"count": 1574,
			"max": [ 0.9999452, 0.9999592, 0.9998634 ],
			"min": [ -0.9999853, -0.9999593, -0.9998634 ],
			"type": "VEC3"
		 },
		"accessor_color_m2-PolyPaper21_-304716": {
			"bufferView": "vec4BufferView",
			"byteOffset": 52224,
			"byteStride": 16,
			"componentType": 5126,
			"count": 1574,
			"max": [ 1, 1, 1, 1 ],
			"min": [ 0.6196079, 0.6196079, 0.6196079, 1 ],
			"type": "VEC4"
		 },
		"accessor_indices_0_m2-PolyPaper21_-304716": {
			"bufferView": "ushortBufferView",
			"byteOffset": 9480,
			"byteStride": 0,
			"componentType": 5123,
			"count": 2364,
			"max": [ 1573 ],
			"min": [ 0 ],
			"type": "SCALAR"
		 }
	},
	"bufferViews": {
		"ushortBufferView": {
			"buffer": "model",
			"byteLength": 14208,
			"byteOffset": 0,
			"target": 34963
		},
		"vec3BufferView": {
			"buffer": "model",
			"byteLength": 116112,
			"byteOffset": 14208,
			"target": 34962
		},
		"vec4BufferView": {
			"buffer": "model",
			"byteLength": 77408,
			"byteOffset": 130320,
			"target": 34962
		}
	},
	"meshes": {
		"mesh_m0-PolyPaper21_-304704": {
			"name": "mesh_m0-PolyPaper21_-304704",
			"primitives": [
				{
					"attributes": {
						"POSITION": "accessor_position_m0-PolyPaper21_-304704",
						"NORMAL": "accessor_normal_m0-PolyPaper21_-304704",
						"COLOR": "accessor_color_m0-PolyPaper21_-304704"
					},
					"indices": "accessor_indices_0_m0-PolyPaper21_-304704",
					"material": "material_mat21",
					"mode": 4
				}
			]
		},
		"mesh_m1-PolyGlass24_-304710": {
			"name": "mesh_m1-PolyGlass24_-304710",
			"primitives": [
				{
					"attributes": {
						"POSITION": "accessor_position_m1-PolyGlass24_-304710",
						"NORMAL": "accessor_normal_m1-PolyGlass24_-304710",
						"COLOR": "accessor_color_m1-PolyGlass24_-304710"
					},
					"indices": "accessor_indices_0_m1-PolyGlass24_-304710",
					"material": "material_mat24",
					"mode": 4
				}
			]
		},
		"mesh_m2-PolyPaper21_-304716": {
			"name": "mesh_m2-PolyPaper21_-304716",
			"primitives": [
				{
					"attributes": {
						"POSITION": "accessor_position_m2-PolyPaper21_-304716",
						"NORMAL": "accessor_normal_m2-PolyPaper21_-304716",
						"COLOR": "accessor_color_m2-PolyPaper21_-304716"
					},
					"indices": "accessor_indices_0_m2-PolyPaper21_-304716",
					"material": "material_mat21",
					"mode": 4
				}
			]
		}
	},
	"shaders": {
		"vertex_mat21": {
			"type": 35633,
			"uri": "https://vr.google.com/shaders/w/vs.glsl"
		},
		"fragment_mat21": {
			"type": 35632,
			"uri": "https://vr.google.com/shaders/w/fs.glsl"
		},
		"vertex_mat24": {
			"type": 35633,
			"uri": "https://vr.google.com/shaders/w/glassVS.glsl"
		},
		"fragment_mat24": {
			"type": 35632,
			"uri": "https://vr.google.com/shaders/w/glassFS.glsl"
		},
		"vertex_mat23": {
			"type": 35633,
			"uri": "https://vr.google.com/shaders/w/vs.glsl"
		},
		"fragment_mat23": {
			"type": 35632,
			"uri": "https://vr.google.com/shaders/w/fs.glsl"
		}
	},
	"programs": {
		"program_mat21": {
			"attributes": [
				"a_position",
				"a_normal",
				"a_color"				
			],
			"vertexShader": "vertex_mat21",
			"fragmentShader": "fragment_mat21"
		},
		"program_mat24": {
			"attributes": [
				"a_position",
				"a_normal",
				"a_color"				
			],
			"vertexShader": "vertex_mat24",
			"fragmentShader": "fragment_mat24"
		},
		"program_mat23": {
			"attributes": [
				"a_position",
				"a_normal",
				"a_color"				
			],
			"vertexShader": "vertex_mat23",
			"fragmentShader": "fragment_mat23"
		}
	},
	"techniques": {
		"technique_mat21": {
			"program": "program_mat21",
			"extras": {"gvrss" : "https://vr.google.com/shaders/w/gvrss/paper.json"},
			"parameters": {
				"position": {
					"type": 35665,
					"semantic": "POSITION"
				},
				"normal": {
					"type": 35665,
					"semantic": "NORMAL"
				},
				"color": {
					"type": 35666,
					"semantic": "COLOR"
				},
				"modelViewMatrix": {
					"type": 35676,
					"semantic": "MODELVIEW"
				},
				"projectionMatrix": {
					"type": 35676,
					"semantic": "PROJECTION"
				},
				"normalMatrix": {
					"type": 35675,
					"semantic": "MODELVIEWINVERSETRANSPOSE"
				},
				"color": {
					"type": 35666
				},
				"roughness": {
					"type": 5126
				},
				"metallic": {
					"type": 5126
				},
				"light0Pos": {
					"type": 35666
				},
				"light0Color": {
					"type": 35666
				},
				"light1Pos": {
					"type": 35666
				},
				"light1Color": {
					"type": 35666
				}				
			},
			"attributes": {
				"a_position": "position",
				"a_normal": "normal",
				"a_color": "color"				
			},
			"uniforms": {
				"u_modelViewMatrix": "modelViewMatrix",
				"u_projectionMatrix": "projectionMatrix",
				"u_normalMatrix": "normalMatrix",
				"u_color": "color",
				"u_roughness": "roughness",
				"u_metallic": "metallic",
				"u_light0Pos": "light0Pos",
				"u_light0Color": "light0Color",
				"u_light1Pos": "light1Pos",
				"u_light1Color": "light1Color"				
			},
			"states": {
				"enable": [
					2929,
					2884
				],
				"functions": {
					"cullFace": [1029]
				}
			}
		},
		"technique_mat24": {
			"program": "program_mat24",
			"extras": {"gvrss" : "https://vr.google.com/shaders/w/gvrss/glass.json"},
			"parameters": {
				"position": {
					"type": 35665,
					"semantic": "POSITION"
				},
				"normal": {
					"type": 35665,
					"semantic": "NORMAL"
				},
				"color": {
					"type": 35666,
					"semantic": "COLOR"
				},
				"modelViewMatrix": {
					"type": 35676,
					"semantic": "MODELVIEW"
				},
				"projectionMatrix": {
					"type": 35676,
					"semantic": "PROJECTION"
				},
				"normalMatrix": {
					"type": 35675,
					"semantic": "MODELVIEWINVERSETRANSPOSE"
				},
				"color": {
					"type": 35666
				},
				"roughness": {
					"type": 5126
				},
				"metallic": {
					"type": 5126
				},
				"light0Pos": {
					"type": 35666
				},
				"light0Color": {
					"type": 35666
				},
				"light1Pos": {
					"type": 35666
				},
				"light1Color": {
					"type": 35666
				}				
			},
			"attributes": {
				"a_position": "position",
				"a_normal": "normal",
				"a_color": "color"				
			},
			"uniforms": {
				"u_modelViewMatrix": "modelViewMatrix",
				"u_projectionMatrix": "projectionMatrix",
				"u_normalMatrix": "normalMatrix",
				"u_color": "color",
				"u_roughness": "roughness",
				"u_metallic": "metallic",
				"u_light0Pos": "light0Pos",
				"u_light0Color": "light0Color",
				"u_light1Pos": "light1Pos",
				"u_light1Color": "light1Color"				
			},
			"states": {
				"enable": [
					2929,
					3042
				],
				"functions": {
					"blendFuncSeparate": [775, 774, 773, 772],
					"depthMask": [true]
				}
			}
		},
		"technique_mat23": {
			"program": "program_mat23",
			"extras": {"gvrss" : "https://vr.google.com/shaders/w/gvrss/paper.json"},
			"parameters": {
				"position": {
					"type": 35665,
					"semantic": "POSITION"
				},
				"normal": {
					"type": 35665,
					"semantic": "NORMAL"
				},
				"color": {
					"type": 35666,
					"semantic": "COLOR"
				},
				"modelViewMatrix": {
					"type": 35676,
					"semantic": "MODELVIEW"
				},
				"projectionMatrix": {
					"type": 35676,
					"semantic": "PROJECTION"
				},
				"normalMatrix": {
					"type": 35675,
					"semantic": "MODELVIEWINVERSETRANSPOSE"
				},
				"color": {
					"type": 35666
				},
				"roughness": {
					"type": 5126
				},
				"metallic": {
					"type": 5126
				},
				"light0Pos": {
					"type": 35666
				},
				"light0Color": {
					"type": 35666
				},
				"light1Pos": {
					"type": 35666
				},
				"light1Color": {
					"type": 35666
				}				
			},
			"attributes": {
				"a_position": "position",
				"a_normal": "normal",
				"a_color": "color"				
			},
			"uniforms": {
				"u_modelViewMatrix": "modelViewMatrix",
				"u_projectionMatrix": "projectionMatrix",
				"u_normalMatrix": "normalMatrix",
				"u_color": "color",
				"u_roughness": "roughness",
				"u_metallic": "metallic",
				"u_light0Pos": "light0Pos",
				"u_light0Color": "light0Color",
				"u_light1Pos": "light1Pos",
				"u_light1Color": "light1Color"				
			},
			"states": {
				"enable": [
					2929,
					2884
				],
				"functions": {
					"cullFace": [1029]
				}
			}
		}
	},
	"materials": {
		"material_mat21": {
			"technique": "technique_mat21",
			"values": {
				"color": [1, 1, 1, 1],
				"roughness": 0.72,
				"metallic": 0,
				"light0Pos": [-0.02, 4.11, -0.54, 0],
				"light0Color": [0.8, 0.7700471, 0.6882353, 0],
				"light1Pos": [0.02, -4.11, 0.54, 0],
				"light1Color": [0.3676471, 0.3692089, 0.4, 0]				
			},
			"name": "material_mat21"
		},
		"material_mat24": {
			"technique": "technique_mat24",
			"values": {
				"color": [0.8392157, 0.8392157, 0.8392157, 0.2509804],
				"roughness": 0,
				"metallic": 0,
				"light0Pos": [-0.02, 4.11, -0.54, 0],
				"light0Color": [0.8, 0.7700471, 0.6882353, 0],
				"light1Pos": [0.02, -4.11, 0.54, 0],
				"light1Color": [0.3676471, 0.3692089, 0.4, 0]				
			},
			"name": "material_mat24"
		},
		"material_mat23": {
			"technique": "technique_mat23",
			"values": {
				"color": [0.1019608, 0.1019608, 0.1019608, 1],
				"roughness": 0.72,
				"metallic": 0,
				"light0Pos": [-0.02, 4.11, -0.54, 0],
				"light0Color": [0.8, 0.7700471, 0.6882353, 0],
				"light1Pos": [0.02, -4.11, 0.54, 0],
				"light1Color": [0.3676471, 0.3692089, 0.4, 0]				
			},
			"name": "material_mat23"
		}
	},
	"nodes": {
		"node_MeshObject1388467200-PolyPaper21": {
			"name": "node_MeshObject1388467200-PolyPaper21",
			"meshes": [
				"mesh_m0-PolyPaper21_-304704"
			],
			"matrix": [1, 0, 0, 0, 0, 1, 0, 0, 0, 0, 1, 0, 0, 0, 0, 1]
		},
		"node_MeshObject1960546304-PolyGlass24": {
			"name": "node_MeshObject1960546304-PolyGlass24",
			"meshes": [
				"mesh_m1-PolyGlass24_-304710"
			],
			"matrix": [1, 0, 0, 0, 0, 1, 0, 0, 0, 0, 1, 0, 0, 0, 0, 1]
		},
		"node_MeshObject-1762341888-PolyPaper21": {
			"name": "node_MeshObject-1762341888-PolyPaper21",
			"meshes": [
				"mesh_m2-PolyPaper21_-304716"
			],
			"matrix": [1, 0, 0, 0, 0, 1, 0, 0, 0, 0, 1, 0, 0, 0, 0, 1]
		}
	},
	"scene": "defaultScene",
	"scenes": {
		"defaultScene": {
			"nodes": [
				"node_MeshObject1388467200-PolyPaper21",
				"node_MeshObject1960546304-PolyGlass24",
				"node_MeshObject-1762341888-PolyPaper21"
			],
			"extras": {

			}
		}
	}
}