{
	"asset": {
		"generator": "Blocks 3.0.1 3.0.1_SVR_RC0",
		"version": "1.1",
		"copyright": "Unknown"
	},
	"buffers": {
		"model": {
			"byteLength": 362624,
			"type": "arraybuffer",
			"uri": "model.bin"
		}
	},
	"accessors": {
		"accessor_position_m0-PolyPaper21_-447434": {
			"bufferView": "vec3BufferView",
			"byteOffset": 0,
			"byteStride": 12,
			"componentType": 5126,
			"count": 3148,
			"max": [ 3.920051, 4.409909, 2.000011 ],
			"min": [ -1.679993, 1.187714, -4.40004 ],
			"type": "VEC3"
		 },
		"accessor_normal_m0-PolyPaper21_-447434": {
			"bufferView": "vec3BufferView",
			"byteOffset": 37776,
			"byteStride": 12,
			"componentType": 5126,
			"count": 3148,
			"max": [ 1, 1, 1 ],
			"min": [ -1, -1, -1 ],
			"type": "VEC3"
		 },
		"accessor_color_m0-PolyPaper21_-447434": {
			"bufferView": "vec4BufferView",
			"byteOffset": 0,
			"byteStride": 16,
			"componentType": 5126,
			"count": 3148,
			"max": [ 1, 1, 1, 1 ],
			"min": [ 0, 0.1019608, 0.1019608, 1 ],
			"type": "VEC4"
		 },
		"accessor_indices_0_m0-PolyPaper21_-447434": {
			"bufferView": "ushortBufferView",
			"byteOffset": 0,
			"byteStride": 0,
			"componentType": 5123,
			"count": 4704,
			"max": [ 3147 ],
			"min": [ 0 ],
			"type": "SCALAR"
		 },
		"accessor_position_m1-PolyGlass24_-447440": {
			"bufferView": "vec3BufferView",
			"byteOffset": 75552,
			"byteStride": 12,
			"componentType": 5126,
			"count": 360,
			"max": [ 3.120035, 3.609902, 1.209959 ],
			"min": [ 1.520033, 2.009902, 0.9311801 ],
			"type": "VEC3"
		 },
		"accessor_normal_m1-PolyGlass24_-447440": {
			"bufferView": "vec3BufferView",
			"byteOffset": 79872,
			"byteStride": 12,
			"componentType": 5126,
			"count": 360,
			"max": [ 1, 1, 1 ],
			"min": [ -1, -1, -1 ],
			"type": "VEC3"
		 },
		"accessor_color_m1-PolyGlass24_-447440": {
			"bufferView": "vec4BufferView",
			"byteOffset": 50368,
			"byteStride": 16,
			"componentType": 5126,
			"count": 360,
			"max": [ 1, 1, 1, 1 ],
			"min": [ 1, 1, 1, 1 ],
			"type": "VEC4"
		 },
		"accessor_indices_0_m1-PolyGlass24_-447440": {
			"bufferView": "ushortBufferView",
			"byteOffset": 9408,
			"byteStride": 0,
			"componentType": 5123,
			"count": 552,
			"max": [ 359 ],
			"min": [ 0 ],
			"type": "SCALAR"
		 },
		"accessor_position_m2-PolyPaper20_-447446": {
			"bufferView": "vec3BufferView",
			"byteOffset": 84192,
			"byteStride": 12,
			"componentType": 5126,
			"count": 3130,
			"max": [ 3.228593, 2.416073, 1.072795 ],
			"min": [ 1.519046, 1.819494, 0.3924427 ],
			"type": "VEC3"
		 },
		"accessor_normal_m2-PolyPaper20_-447446": {
			"bufferView": "vec3BufferView",
			"byteOffset": 121752,
			"byteStride": 12,
			"componentType": 5126,
			"count": 3130,
			"max": [ 0.9999609, 0.9999592, 1 ],
			"min": [ -1, -1, -0.9998634 ],
			"type": "VEC3"
		 },
		"accessor_color_m2-PolyPaper20_-447446": {
			"bufferView": "vec4BufferView",
			"byteOffset": 56128,
			"byteStride": 16,
			"componentType": 5126,
			"count": 3130,
			"max": [ 1, 1, 1, 1 ],
			"min": [ 0.01176471, 0.1019608, 0.1019608, 1 ],
			"type": "VEC4"
		 },
		"accessor_indices_0_m2-PolyPaper20_-447446": {
			"bufferView": "ushortBufferView",
			"byteOffset": 10512,
			"byteStride": 0,
			"componentType": 5123,
			"count": 4548,
			"max": [ 3129 ],
			"min": [ 0 ],
			"type": "SCALAR"
		 },
		"accessor_position_m3-PolyPaper21_-447452": {
			"bufferView": "vec3BufferView",
			"byteOffset": 159312,
			"byteStride": 12,
			"componentType": 5126,
			"count": 1392,
			"max": [ 3.153579, 2.090026, 0.9226789 ],
			"min": [ 2.203912, 1.869729, 0.5271227 ],
			"type": "VEC3"
		 },
		"accessor_normal_m3-PolyPaper21_-447452": {
			"bufferView": "vec3BufferView",
			"byteOffset": 176016,
			"byteStride": 12,
			"componentType": 5126,
			"count": 1392,
			"max": [ 0.9999123, 0.9999595, 0.9999081 ],
			"min": [ -0.9932225, -0.9999593, -0.9998927 ],
			"type": "VEC3"
		 },
		"accessor_color_m3-PolyPaper21_-447452": {
			"bufferView": "vec4BufferView",
			"byteOffset": 106208,
			"byteStride": 16,
			"componentType": 5126,
			"count": 1392,
			"max": [ 0.2705882, 0.3529412, 0.3921569, 1 ],
			"min": [ 0.1019608, 0.1019608, 0.1019608, 1 ],
			"type": "VEC4"
		 },
		"accessor_indices_0_m3-PolyPaper21_-447452": {
			"bufferView": "ushortBufferView",
			"byteOffset": 19608,
			"byteStride": 0,
			"componentType": 5123,
			"count": 2136,
			"max": [ 1391 ],
			"min": [ 0 ],
			"type": "SCALAR"
		 },
		"accessor_position_m4-PolyPaper23_-447458": {
			"bufferView": "vec3BufferView",
			"byteOffset": 192720,
			"byteStride": 12,
			"componentType": 5126,
			"count": 408,
			"max": [ 3.153332, 2.091857, 0.5543188 ],
			"min": [ 2.712966, 1.869337, 0.5293187 ],
			"type": "VEC3"
		 },
		"accessor_normal_m4-PolyPaper23_-447458": {
			"bufferView": "vec3BufferView",
			"byteOffset": 197616,
			"byteStride": 12,
			"componentType": 5126,
			"count": 408,
			"max": [ 0.9901102, 0.9912584, 0.9999081 ],
			"min": [ -0.9978698, -0.9918101, -0.9997931 ],
			"type": "VEC3"
		 },
		"accessor_color_m4-PolyPaper23_-447458": {
			"bufferView": "vec4BufferView",
			"byteOffset": 128480,
			"byteStride": 16,
			"componentType": 5126,
			"count": 408,
			"max": [ 0.1019608, 0.1019608, 0.1019608, 1 ],
			"min": [ 0.1019608, 0.1019608, 0.1019608, 1 ],
			"type": "VEC4"
		 },
		"accessor_indices_0_m4-PolyPaper23_-447458": {
			"bufferView": "ushortBufferView",
			"byteOffset": 23880,
			"byteStride": 0,
			"componentType": 5123,
			"count": 612,
			"max": [ 407 ],
			"min": [ 0 ],
			"type": "SCALAR"
		 }
	},
	"bufferViews": {
		"ushortBufferView": {
			"buffer": "model",
			"byteLength": 25104,
			"byteOffset": 0,
			"target": 34963
		},
		"vec3BufferView": {
			"buffer": "model",
			"byteLength": 202512,
			"byteOffset": 25104,
			"target": 34962
		},
		"vec4BufferView": {
			"buffer": "model",
			"byteLength": 135008,
			"byteOffset": 227616,
			"target": 34962
		}
	},
	"meshes": {
		"mesh_m0-PolyPaper21_-447434": {
			"name": "mesh_m0-PolyPaper21_-447434",
			"primitives": [
				{
					"attributes": {
						"POSITION": "accessor_position_m0-PolyPaper21_-447434",
						"NORMAL": "accessor_normal_m0-PolyPaper21_-447434",
						"COLOR": "accessor_color_m0-PolyPaper21_-447434"
					},
					"indices": "accessor_indices_0_m0-PolyPaper21_-447434",
					"material": "material_mat21",
					"mode": 4
				}
			]
		},
		"mesh_m1-PolyGlass24_-447440": {
			"name": "mesh_m1-PolyGlass24_-447440",
			"primitives": [
				{
					"attributes": {
						"POSITION": "accessor_position_m1-PolyGlass24_-447440",
						"NORMAL": "accessor_normal_m1-PolyGlass24_-447440",
						"COLOR": "accessor_color_m1-PolyGlass24_-447440"
					},
					"indices": "accessor_indices_0_m1-PolyGlass24_-447440",
					"material": "material_mat24",
					"mode": 4
				}
			]
		},
		"mesh_m2-PolyPaper20_-447446": {
			"name": "mesh_m2-PolyPaper20_-447446",
			"primitives": [
				{
					"attributes": {
						"POSITION": "accessor_position_m2-PolyPaper20_-447446",
						"NORMAL": "accessor_normal_m2-PolyPaper20_-447446",
						"COLOR": "accessor_color_m2-PolyPaper20_-447446"
					},
					"indices": "accessor_indices_0_m2-PolyPaper20_-447446",
					"material": "material_mat20",
					"mode": 4
				}
			]
		},
		"mesh_m3-PolyPaper21_-447452": {
			"name": "mesh_m3-PolyPaper21_-447452",
			"primitives": [
				{
					"attributes": {
						"POSITION": "accessor_position_m3-PolyPaper21_-447452",
						"NORMAL": "accessor_normal_m3-PolyPaper21_-447452",
						"COLOR": "accessor_color_m3-PolyPaper21_-447452"
					},
					"indices": "accessor_indices_0_m3-PolyPaper21_-447452",
					"material": "material_mat21",
					"mode": 4
				}
			]
		},
		"mesh_m4-PolyPaper23_-447458": {
			"name": "mesh_m4-PolyPaper23_-447458",
			"primitives": [
				{
					"attributes": {
						"POSITION": "accessor_position_m4-PolyPaper23_-447458",
						"NORMAL": "accessor_normal_m4-PolyPaper23_-447458",
						"COLOR": "accessor_color_m4-PolyPaper23_-447458"
					},
					"indices": "accessor_indices_0_m4-PolyPaper23_-447458",
					"material": "material_mat23",
					"mode": 4
				}
			]
		}
	},
	"shaders": {
		"vertex_mat21": {
			"type": 35633,
			"uri": "https://vr.google.com/shaders/w/vs.glsl"
		},
		"fragment_mat21": {
			"type": 35632,
			"uri": "https://vr.google.com/shaders/w/fs.glsl"
		},
		"vertex_mat24": {
			"type": 35633,
			"uri": "https://vr.google.com/shaders/w/glassVS.glsl"
		},
		"fragment_mat24": {
			"type": 35632,
			"uri": "https://vr.google.com/shaders/w/glassFS.glsl"
		},
		"vertex_mat20": {
			"type": 35633,
			"uri": "https://vr.google.com/shaders/w/vs.glsl"
		},
		"fragment_mat20": {
			"type": 35632,
			"uri": "https://vr.google.com/shaders/w/fs.glsl"
		},
		"vertex_mat23": {
			"type": 35633,
			"uri": "https://vr.google.com/shaders/w/vs.glsl"
		},
		"fragment_mat23": {
			"type": 35632,
			"uri": "https://vr.google.com/shaders/w/fs.glsl"
		}
	},
	"programs": {
		"program_mat21": {
			"attributes": [
				"a_position",
				"a_normal",
				"a_color"				
			],
			"vertexShader": "vertex_mat21",
			"fragmentShader": "fragment_mat21"
		},
		"program_mat24": {
			"attributes": [
				"a_position",
				"a_normal",
				"a_color"				
			],
			"vertexShader": "vertex_mat24",
			"fragmentShader": "fragment_mat24"
		},
		"program_mat20": {
			"attributes": [
				"a_position",
				"a_normal",
				"a_color"				
			],
			"vertexShader": "vertex_mat20",
			"fragmentShader": "fragment_mat20"
		},
		"program_mat23": {
			"attributes": [
				"a_position",
				"a_normal",
				"a_color"				
			],
			"vertexShader": "vertex_mat23",
			"fragmentShader": "fragment_mat23"
		}
	},
	"techniques": {
		"technique_mat21": {
			"program": "program_mat21",
			"extras": {"gvrss" : "https://vr.google.com/shaders/w/gvrss/paper.json"},
			"parameters": {
				"position": {
					"type": 35665,
					"semantic": "POSITION"
				},
				"normal": {
					"type": 35665,
					"semantic": "NORMAL"
				},
				"color": {
					"type": 35666,
					"semantic": "COLOR"
				},
				"modelViewMatrix": {
					"type": 35676,
					"semantic": "MODELVIEW"
				},
				"projectionMatrix": {
					"type": 35676,
					"semantic": "PROJECTION"
				},
				"normalMatrix": {
					"type": 35675,
					"semantic": "MODELVIEWINVERSETRANSPOSE"
				},
				"color": {
					"type": 35666
				},
				"roughness": {
					"type": 5126
				},
				"metallic": {
					"type": 5126
				},
				"light0Pos": {
					"type": 35666
				},
				"light0Color": {
					"type": 35666
				},
				"light1Pos": {
					"type": 35666
				},
				"light1Color": {
					"type": 35666
				}				
			},
			"attributes": {
				"a_position": "position",
				"a_normal": "normal",
				"a_color": "color"				
			},
			"uniforms": {
				"u_modelViewMatrix": "modelViewMatrix",
				"u_projectionMatrix": "projectionMatrix",
				"u_normalMatrix": "normalMatrix",
				"u_color": "color",
				"u_roughness": "roughness",
				"u_metallic": "metallic",
				"u_light0Pos": "light0Pos",
				"u_light0Color": "light0Color",
				"u_light1Pos": "light1Pos",
				"u_light1Color": "light1Color"				
			},
			"states": {
				"enable": [
					2929,
					2884
				],
				"functions": {
					"cullFace": [1029]
				}
			}
		},
		"technique_mat24": {
			"program": "program_mat24",
			"extras": {"gvrss" : "https://vr.google.com/shaders/w/gvrss/glass.json"},
			"parameters": {
				"position": {
					"type": 35665,
					"semantic": "POSITION"
				},
				"normal": {
					"type": 35665,
					"semantic": "NORMAL"
				},
				"color": {
					"type": 35666,
					"semantic": "COLOR"
				},
				"modelViewMatrix": {
					"type": 35676,
					"semantic": "MODELVIEW"
				},
				"projectionMatrix": {
					"type": 35676,
					"semantic": "PROJECTION"
				},
				"normalMatrix": {
					"type": 35675,
					"semantic": "MODELVIEWINVERSETRANSPOSE"
				},
				"color": {
					"type": 35666
				},
				"roughness": {
					"type": 5126
				},
				"metallic": {
					"type": 5126
				},
				"light0Pos": {
					"type": 35666
				},
				"light0Color": {
					"type": 35666
				},
				"light1Pos": {
					"type": 35666
				},
				"light1Color": {
					"type": 35666
				}				
			},
			"attributes": {
				"a_position": "position",
				"a_normal": "normal",
				"a_color": "color"				
			},
			"uniforms": {
				"u_modelViewMatrix": "modelViewMatrix",
				"u_projectionMatrix": "projectionMatrix",
				"u_normalMatrix": "normalMatrix",
				"u_color": "color",
				"u_roughness": "roughness",
				"u_metallic": "metallic",
				"u_light0Pos": "light0Pos",
				"u_light0Color": "light0Color",
				"u_light1Pos": "light1Pos",
				"u_light1Color": "light1Color"				
			},
			"states": {
				"enable": [
					2929,
					3042
				],
				"functions": {
					"blendFuncSeparate": [775, 774, 773, 772],
					"depthMask": [true]
				}
			}
		},
		"technique_mat20": {
			"program": "program_mat20",
			"extras": {"gvrss" : "https://vr.google.com/shaders/w/gvrss/paper.json"},
			"parameters": {
				"position": {
					"type": 35665,
					"semantic": "POSITION"
				},
				"normal": {
					"type": 35665,
					"semantic": "NORMAL"
				},
				"color": {
					"type": 35666,
					"semantic": "COLOR"
				},
				"modelViewMatrix": {
					"type": 35676,
					"semantic": "MODELVIEW"
				},
				"projectionMatrix": {
					"type": 35676,
					"semantic": "PROJECTION"
				},
				"normalMatrix": {
					"type": 35675,
					"semantic": "MODELVIEWINVERSETRANSPOSE"
				},
				"color": {
					"type": 35666
				},
				"roughness": {
					"type": 5126
				},
				"metallic": {
					"type": 5126
				},
				"light0Pos": {
					"type": 35666
				},
				"light0Color": {
					"type": 35666
				},
				"light1Pos": {
					"type": 35666
				},
				"light1Color": {
					"type": 35666
				}				
			},
			"attributes": {
				"a_position": "position",
				"a_normal": "normal",
				"a_color": "color"				
			},
			"uniforms": {
				"u_modelViewMatrix": "modelViewMatrix",
				"u_projectionMatrix": "projectionMatrix",
				"u_normalMatrix": "normalMatrix",
				"u_color": "color",
				"u_roughness": "roughness",
				"u_metallic": "metallic",
				"u_light0Pos": "light0Pos",
				"u_light0Color": "light0Color",
				"u_light1Pos": "light1Pos",
				"u_light1Color": "light1Color"				
			},
			"states": {
				"enable": [
					2929,
					2884
				],
				"functions": {
					"cullFace": [1029]
				}
			}
		},
		"technique_mat23": {
			"program": "program_mat23",
			"extras": {"gvrss" : "https://vr.google.com/shaders/w/gvrss/paper.json"},
			"parameters": {
				"position": {
					"type": 35665,
					"semantic": "POSITION"
				},
				"normal": {
					"type": 35665,
					"semantic": "NORMAL"
				},
				"color": {
					"type": 35666,
					"semantic": "COLOR"
				},
				"modelViewMatrix": {
					"type": 35676,
					"semantic": "MODELVIEW"
				},
				"projectionMatrix": {
					"type": 35676,
					"semantic": "PROJECTION"
				},
				"normalMatrix": {
					"type": 35675,
					"semantic": "MODELVIEWINVERSETRANSPOSE"
				},
				"color": {
					"type": 35666
				},
				"roughness": {
					"type": 5126
				},
				"metallic": {
					"type": 5126
				},
				"light0Pos": {
					"type": 35666
				},
				"light0Color": {
					"type": 35666
				},
				"light1Pos": {
					"type": 35666
				},
				"light1Color": {
					"type": 35666
				}				
			},
			"attributes": {
				"a_position": "position",
				"a_normal": "normal",
				"a_color": "color"				
			},
			"uniforms": {
				"u_modelViewMatrix": "modelViewMatrix",
				"u_projectionMatrix": "projectionMatrix",
				"u_normalMatrix": "normalMatrix",
				"u_color": "color",
				"u_roughness": "roughness",
				"u_metallic": "metallic",
				"u_light0Pos": "light0Pos",
				"u_light0Color": "light0Color",
				"u_light1Pos": "light1Pos",
				"u_light1Color": "light1Color"				
			},
			"states": {
				"enable": [
					2929,
					2884
				],
				"functions": {
					"cullFace": [1029]
				}
			}
		}
	},
	"materials": {
		"material_mat21": {
			"technique": "technique_mat21",
			"values": {
				"color": [1, 1, 1, 1],
				"roughness": 0.72,
				"metallic": 0,
				"light0Pos": [-0.02, 4.11, -0.54, 0],
				"light0Color": [0.8, 0.7700471, 0.6882353, 0],
				"light1Pos": [0.02, -4.11, 0.54, 0],
				"light1Color": [0.3676471, 0.3692089, 0.4, 0]				
			},
			"name": "material_mat21"
		},
		"material_mat24": {
			"technique": "technique_mat24",
			"values": {
				"color": [0.8392157, 0.8392157, 0.8392157, 0.2509804],
				"roughness": 0,
				"metallic": 0,
				"light0Pos": [-0.02, 4.11, -0.54, 0],
				"light0Color": [0.8, 0.7700471, 0.6882353, 0],
				"light1Pos": [0.02, -4.11, 0.54, 0],
				"light1Color": [0.3676471, 0.3692089, 0.4, 0]				
			},
			"name": "material_mat24"
		},
		"material_mat20": {
			"technique": "technique_mat20",
			"values": {
				"color": [0.4745098, 0.3333333, 0.282353, 1],
				"roughness": 0.72,
				"metallic": 0,
				"light0Pos": [-0.02, 4.11, -0.54, 0],
				"light0Color": [0.8, 0.7700471, 0.6882353, 0],
				"light1Pos": [0.02, -4.11, 0.54, 0],
				"light1Color": [0.3676471, 0.3692089, 0.4, 0]				
			},
			"name": "material_mat20"
		},
		"material_mat23": {
			"technique": "technique_mat23",
			"values": {
				"color": [0.1019608, 0.1019608, 0.1019608, 1],
				"roughness": 0.72,
				"metallic": 0,
				"light0Pos": [-0.02, 4.11, -0.54, 0],
				"light0Color": [0.8, 0.7700471, 0.6882353, 0],
				"light1Pos": [0.02, -4.11, 0.54, 0],
				"light1Color": [0.3676471, 0.3692089, 0.4, 0]				
			},
			"name": "material_mat23"
		}
	},
	"nodes": {
		"node_MeshObject-1900798976-PolyPaper21": {
			"name": "node_MeshObject-1900798976-PolyPaper21",
			"meshes": [
				"mesh_m0-PolyPaper21_-447434"
			],
			"matrix": [1, 0, 0, 0, 0, 1, 0, 0, 0, 0, 1, 0, 0, 0, 0, 1]
		},
		"node_MeshObject-1328719872-PolyGlass24": {
			"name": "node_MeshObject-1328719872-PolyGlass24",
			"meshes": [
				"mesh_m1-PolyGlass24_-447440"
			],
			"matrix": [1, 0, 0, 0, 0, 1, 0, 0, 0, 0, 1, 0, 0, 0, 0, 1]
		},
		"node_MeshObject-756640768-PolyPaper20": {
			"name": "node_MeshObject-756640768-PolyPaper20",
			"meshes": [
				"mesh_m2-PolyPaper20_-447446"
			],
			"matrix": [1, 0, 0, 0, 0, 1, 0, 0, 0, 0, 1, 0, 0, 0, 0, 1]
		},
		"node_MeshObject-184561664-PolyPaper21": {
			"name": "node_MeshObject-184561664-PolyPaper21",
			"meshes": [
				"mesh_m3-PolyPaper21_-447452"
			],
			"matrix": [1, 0, 0, 0, 0, 1, 0, 0, 0, 0, 1, 0, 0, 0, 0, 1]
		},
		"node_MeshObject387517440-PolyPaper23": {
			"name": "node_MeshObject387517440-PolyPaper23",
			"meshes": [
				"mesh_m4-PolyPaper23_-447458"
			],
			"matrix": [1, 0, 0, 0, 0, 1, 0, 0, 0, 0, 1, 0, 0, 0, 0, 1]
		}
	},
	"scene": "defaultScene",
	"scenes": {
		"defaultScene": {
			"nodes": [
				"node_MeshObject-1900798976-PolyPaper21",
				"node_MeshObject-1328719872-PolyGlass24",
				"node_MeshObject-756640768-PolyPaper20",
				"node_MeshObject-184561664-PolyPaper21",
				"node_MeshObject387517440-PolyPaper23"
			],
			"extras": {

			}
		}
	}
}