{
	"asset": {
		"generator": "Blocks 3.0.1 3.0.1_SVR_RC0",
		"version": "1.1",
		"copyright": "Unknown"
	},
	"buffers": {
		"model": {
			"byteLength": 388232,
			"type": "arraybuffer",
			"uri": "model.bin"
		}
	},
	"accessors": {
		"accessor_position_m0-PolyPaper22_-480182": {
			"bufferView": "vec3BufferView",
			"byteOffset": 0,
			"byteStride": 12,
			"componentType": 5126,
			"count": 6660,
			"max": [ 1.230036, 1.772438, 1.003429 ],
			"min": [ -0.0950647, 1.5087, -0.5878512 ],
			"type": "VEC3"
		 },
		"accessor_normal_m0-PolyPaper22_-480182": {
			"bufferView": "vec3BufferView",
			"byteOffset": 79920,
			"byteStride": 12,
			"componentType": 5126,
			"count": 6660,
			"max": [ 0.9961365, 0.9996953, 0.9984424 ],
			"min": [ -0.9961365, -0.9996953, -0.9984424 ],
			"type": "VEC3"
		 },
		"accessor_color_m0-PolyPaper22_-480182": {
			"bufferView": "vec4BufferView",
			"byteOffset": 0,
			"byteStride": 16,
			"componentType": 5126,
			"count": 6660,
			"max": [ 0.8666667, 0.6196079, 0.6196079, 1 ],
			"min": [ 0.4745098, 0.3333333, 0.2666667, 1 ],
			"type": "VEC4"
		 },
		"accessor_indices_0_m0-PolyPaper22_-480182": {
			"bufferView": "ushortBufferView",
			"byteOffset": 0,
			"byteStride": 0,
			"componentType": 5123,
			"count": 8364,
			"max": [ 6659 ],
			"min": [ 0 ],
			"type": "SCALAR"
		 },
		"accessor_position_m1-PolyPaper20_-480188": {
			"bufferView": "vec3BufferView",
			"byteOffset": 159840,
			"byteStride": 12,
			"componentType": 5126,
			"count": 2468,
			"max": [ 1.081982, 1.782165, 0.6840504 ],
			"min": [ 0.5344014, 1.545412, -0.1622817 ],
			"type": "VEC3"
		 },
		"accessor_normal_m1-PolyPaper20_-480188": {
			"bufferView": "vec3BufferView",
			"byteOffset": 189456,
			"byteStride": 12,
			"componentType": 5126,
			"count": 2468,
			"max": [ 0.9992955, 0.9978982, 0.9999803 ],
			"min": [ -0.9992955, -0.9987411, -0.9999802 ],
			"type": "VEC3"
		 },
		"accessor_color_m1-PolyPaper20_-480188": {
			"bufferView": "vec4BufferView",
			"byteOffset": 106560,
			"byteStride": 16,
			"componentType": 5126,
			"count": 2468,
			"max": [ 0.8666667, 0.6196079, 0.6196079, 1 ],
			"min": [ 0.4745098, 0.3333333, 0.2666667, 1 ],
			"type": "VEC4"
		 },
		"accessor_indices_0_m1-PolyPaper20_-480188": {
			"bufferView": "ushortBufferView",
			"byteOffset": 16728,
			"byteStride": 0,
			"componentType": 5123,
			"count": 3192,
			"max": [ 2467 ],
			"min": [ 0 ],
			"type": "SCALAR"
		 }
	},
	"bufferViews": {
		"ushortBufferView": {
			"buffer": "model",
			"byteLength": 23112,
			"byteOffset": 0,
			"target": 34963
		},
		"vec3BufferView": {
			"buffer": "model",
			"byteLength": 219072,
			"byteOffset": 23112,
			"target": 34962
		},
		"vec4BufferView": {
			"buffer": "model",
			"byteLength": 146048,
			"byteOffset": 242184,
			"target": 34962
		}
	},
	"meshes": {
		"mesh_m0-PolyPaper22_-480182": {
			"name": "mesh_m0-PolyPaper22_-480182",
			"primitives": [
				{
					"attributes": {
						"POSITION": "accessor_position_m0-PolyPaper22_-480182",
						"NORMAL": "accessor_normal_m0-PolyPaper22_-480182",
						"COLOR": "accessor_color_m0-PolyPaper22_-480182"
					},
					"indices": "accessor_indices_0_m0-PolyPaper22_-480182",
					"material": "material_mat22",
					"mode": 4
				}
			]
		},
		"mesh_m1-PolyPaper20_-480188": {
			"name": "mesh_m1-PolyPaper20_-480188",
			"primitives": [
				{
					"attributes": {
						"POSITION": "accessor_position_m1-PolyPaper20_-480188",
						"NORMAL": "accessor_normal_m1-PolyPaper20_-480188",
						"COLOR": "accessor_color_m1-PolyPaper20_-480188"
					},
					"indices": "accessor_indices_0_m1-PolyPaper20_-480188",
					"material": "material_mat20",
					"mode": 4
				}
			]
		}
	},
	"shaders": {
		"vertex_mat22": {
			"type": 35633,
			"uri": "https://vr.google.com/shaders/w/vs.glsl"
		},
		"fragment_mat22": {
			"type": 35632,
			"uri": "https://vr.google.com/shaders/w/fs.glsl"
		},
		"vertex_mat20": {
			"type": 35633,
			"uri": "https://vr.google.com/shaders/w/vs.glsl"
		},
		"fragment_mat20": {
			"type": 35632,
			"uri": "https://vr.google.com/shaders/w/fs.glsl"
		}
	},
	"programs": {
		"program_mat22": {
			"attributes": [
				"a_position",
				"a_normal",
				"a_color"				
			],
			"vertexShader": "vertex_mat22",
			"fragmentShader": "fragment_mat22"
		},
		"program_mat20": {
			"attributes": [
				"a_position",
				"a_normal",
				"a_color"				
			],
			"vertexShader": "vertex_mat20",
			"fragmentShader": "fragment_mat20"
		}
	},
	"techniques": {
		"technique_mat22": {
			"program": "program_mat22",
			"extras": {"gvrss" : "https://vr.google.com/shaders/w/gvrss/paper.json"},
			"parameters": {
				"position": {
					"type": 35665,
					"semantic": "POSITION"
				},
				"normal": {
					"type": 35665,
					"semantic": "NORMAL"
				},
				"color": {
					"type": 35666,
					"semantic": "COLOR"
				},
				"modelViewMatrix": {
					"type": 35676,
					"semantic": "MODELVIEW"
				},
				"projectionMatrix": {
					"type": 35676,
					"semantic": "PROJECTION"
				},
				"normalMatrix": {
					"type": 35675,
					"semantic": "MODELVIEWINVERSETRANSPOSE"
				},
				"color": {
					"type": 35666
				},
				"roughness": {
					"type": 5126
				},
				"metallic": {
					"type": 5126
				},
				"light0Pos": {
					"type": 35666
				},
				"light0Color": {
					"type": 35666
				},
				"light1Pos": {
					"type": 35666
				},
				"light1Color": {
					"type": 35666
				}				
			},
			"attributes": {
				"a_position": "position",
				"a_normal": "normal",
				"a_color": "color"				
			},
			"uniforms": {
				"u_modelViewMatrix": "modelViewMatrix",
				"u_projectionMatrix": "projectionMatrix",
				"u_normalMatrix": "normalMatrix",
				"u_color": "color",
				"u_roughness": "roughness",
				"u_metallic": "metallic",
				"u_light0Pos": "light0Pos",
				"u_light0Color": "light0Color",
				"u_light1Pos": "light1Pos",
				"u_light1Color": "light1Color"				
			},
			"states": {
				"enable": [
					2929,
					2884
				],
				"functions": {
					"cullFace": [1029]
				}
			}
		},
		"technique_mat20": {
			"program": "program_mat20",
			"extras": {"gvrss" : "https://vr.google.com/shaders/w/gvrss/paper.json"},
			"parameters": {
				"position": {
					"type": 35665,
					"semantic": "POSITION"
				},
				"normal": {
					"type": 35665,
					"semantic": "NORMAL"
				},
				"color": {
					"type": 35666,
					"semantic": "COLOR"
				},
				"modelViewMatrix": {
					"type": 35676,
					"semantic": "MODELVIEW"
				},
				"projectionMatrix": {
					"type": 35676,
					"semantic": "PROJECTION"
				},
				"normalMatrix": {
					"type": 35675,
					"semantic": "MODELVIEWINVERSETRANSPOSE"
				},
				"color": {
					"type": 35666
				},
				"roughness": {
					"type": 5126
				},
				"metallic": {
					"type": 5126
				},
				"light0Pos": {
					"type": 35666
				},
				"light0Color": {
					"type": 35666
				},
				"light1Pos": {
					"type": 35666
				},
				"light1Color": {
					"type": 35666
				}				
			},
			"attributes": {
				"a_position": "position",
				"a_normal": "normal",
				"a_color": "color"				
			},
			"uniforms": {
				"u_modelViewMatrix": "modelViewMatrix",
				"u_projectionMatrix": "projectionMatrix",
				"u_normalMatrix": "normalMatrix",
				"u_color": "color",
				"u_roughness": "roughness",
				"u_metallic": "metallic",
				"u_light0Pos": "light0Pos",
				"u_light0Color": "light0Color",
				"u_light1Pos": "light1Pos",
				"u_light1Color": "light1Color"				
			},
			"states": {
				"enable": [
					2929,
					2884
				],
				"functions": {
					"cullFace": [1029]
				}
			}
		}
	},
	"materials": {
		"material_mat22": {
			"technique": "technique_mat22",
			"values": {
				"color": [0.6196079, 0.6196079, 0.6196079, 1],
				"roughness": 0.72,
				"metallic": 0,
				"light0Pos": [-0.02, 4.11, -0.54, 0],
				"light0Color": [0.8, 0.7700471, 0.6882353, 0],
				"light1Pos": [0.02, -4.11, 0.54, 0],
				"light1Color": [0.3676471, 0.3692089, 0.4, 0]				
			},
			"name": "material_mat22"
		},
		"material_mat20": {
			"technique": "technique_mat20",
			"values": {
				"color": [0.4745098, 0.3333333, 0.282353, 1],
				"roughness": 0.72,
				"metallic": 0,
				"light0Pos": [-0.02, 4.11, -0.54, 0],
				"light0Color": [0.8, 0.7700471, 0.6882353, 0],
				"light1Pos": [0.02, -4.11, 0.54, 0],
				"light1Color": [0.3676471, 0.3692089, 0.4, 0]				
			},
			"name": "material_mat20"
		}
	},
	"nodes": {
		"node_MeshObject-259259392-PolyPaper22": {
			"name": "node_MeshObject-259259392-PolyPaper22",
			"meshes": [
				"mesh_m0-PolyPaper22_-480182"
			],
			"matrix": [1, 0, 0, 0, 0, 1, 0, 0, 0, 0, 1, 0, 0, 0, 0, 1]
		},
		"node_MeshObject312819712-PolyPaper20": {
			"name": "node_MeshObject312819712-PolyPaper20",
			"meshes": [
				"mesh_m1-PolyPaper20_-480188"
			],
			"matrix": [1, 0, 0, 0, 0, 1, 0, 0, 0, 0, 1, 0, 0, 0, 0, 1]
		}
	},
	"scene": "defaultScene",
	"scenes": {
		"defaultScene": {
			"nodes": [
				"node_MeshObject-259259392-PolyPaper22",
				"node_MeshObject312819712-PolyPaper20"
			],
			"extras": {

			}
		}
	}
}